<svg width="143" height="23" viewBox="0 0 143 23" fill="none" xmlns="http://www.w3.org/2000/svg">
<path d="M78.6784 18.6815H77.1077V16.2464H78.6784C79.6513 16.2464 80.6341 16.0039 81.2672 15.3301C81.9009 14.6562 82.14 13.6225 82.14 12.5893C82.14 11.5561 81.9109 10.5224 81.2672 9.84908C80.6246 9.1752 79.6513 8.9327 78.6784 8.9327C77.7056 8.9327 76.7227 9.1752 76.0885 9.84908C75.4549 10.523 75.2157 11.5561 75.2157 12.5893V22.5901H72.4604V6.50708H75.2157V7.5313H75.7209C75.7756 7.46816 75.8304 7.41452 75.8857 7.36088C76.5752 6.73171 77.6307 6.50708 78.6684 6.50708C80.2944 6.50708 81.9193 6.91163 82.9849 8.03476C84.0499 9.15788 84.4265 10.8828 84.4265 12.5993C84.4265 14.3159 84.0404 16.0319 82.9849 17.1639C81.9288 18.296 80.2944 18.6827 78.6784 18.6827V18.6815Z" fill="#3964FE"/>
<path d="M36.7486 6.94024H38.3188V9.37536H36.7486C35.7752 9.37536 34.7929 9.61786 34.1593 10.2917C33.5256 10.9656 33.287 11.9993 33.287 13.0325C33.287 14.0657 33.5167 15.0988 34.1593 15.7727C34.8019 16.4466 35.7752 16.6891 36.7486 16.6891C37.722 16.6891 38.7049 16.4466 39.3385 15.7727C39.9722 15.0988 40.2108 14.0657 40.2108 13.0325V3.02271H42.9655V19.1153H40.2108V18.091H39.7056C39.6503 18.1536 39.5955 18.2078 39.5402 18.2615C38.8513 18.8901 37.7952 19.1153 36.7576 19.1153C35.1321 19.1153 33.5066 18.7113 32.4416 17.5882C31.3766 16.465 31 14.7395 31 13.0236C31 11.3076 31.3856 9.59104 32.4416 8.45897C33.5066 7.33585 35.1321 6.94024 36.7486 6.94024Z" fill="#3964FE"/>
<path d="M56.7855 12.8147V13.7943H49.4483V11.8447H54.3151C54.2051 11.1351 53.948 10.4701 53.4887 9.98457C52.8277 9.28387 51.8079 9.03243 50.7982 9.03243C49.7886 9.03243 48.7688 9.28387 48.1078 9.98457C47.4468 10.6853 47.2076 11.7548 47.2076 12.8153C47.2076 13.8758 47.4462 14.9537 48.1078 15.6455C48.7688 16.3372 49.788 16.5982 50.7982 16.5982C51.8085 16.5982 52.8277 16.3467 53.4887 15.6455C53.5804 15.5466 53.6631 15.4387 53.7458 15.3309H56.4642C56.2256 16.1757 55.849 16.9396 55.2796 17.5324C54.1777 18.6913 52.479 19.1137 50.7982 19.1137C49.1175 19.1137 47.4188 18.7003 46.3169 17.5324C45.215 16.3646 44.811 14.5855 44.811 12.8153C44.811 11.0451 45.2061 9.25705 46.3169 8.09816C47.4283 6.93928 49.1175 6.51685 50.7982 6.51685C52.479 6.51685 54.1777 6.93034 55.2796 8.09816C56.3904 9.26599 56.7855 11.0451 56.7855 12.8153V12.8147Z" fill="#3964FE"/>
<path d="M70.6151 12.8147V13.7943H63.2779V11.8447H68.1447C68.0341 11.1351 67.7776 10.4701 67.3183 9.98457C66.6573 9.28387 65.6375 9.03243 64.6278 9.03243C63.6181 9.03243 62.5984 9.28387 61.9374 9.98457C61.2763 10.6853 61.0372 11.7548 61.0372 12.8153C61.0372 13.8758 61.2758 14.9537 61.9374 15.6455C62.5984 16.3372 63.6181 16.5982 64.6278 16.5982C65.6375 16.5982 66.6573 16.3467 67.3183 15.6455C67.4105 15.5466 67.4927 15.4387 67.5748 15.3309H70.2938C70.0546 16.1757 69.678 16.9396 69.1086 17.5324C68.0067 18.6913 66.3081 19.1137 64.6278 19.1137C62.9476 19.1137 61.2484 18.7003 60.1465 17.5324C59.0446 16.3646 58.6406 14.5855 58.6406 12.8153C58.6406 11.0451 59.0357 9.25705 60.1465 8.09816C61.2579 6.93928 62.9471 6.51685 64.6278 6.51685C66.3086 6.51685 68.0067 6.93034 69.1086 8.09816C70.22 9.26599 70.6151 11.0451 70.6151 12.8153V12.8147Z" fill="#3964FE"/>
<path d="M92.2781 19.1149C93.9589 19.1149 95.657 18.8724 96.7589 18.1806C97.8607 17.4888 98.2653 16.4372 98.2653 15.3951C98.2653 14.353 97.8697 13.2925 96.7589 12.6097C95.657 11.9269 93.9583 11.6748 92.2781 11.6748C91.5612 11.6748 90.9002 11.5759 90.4319 11.3156C89.9637 11.0457 89.7893 10.6417 89.7893 10.2371C89.7893 9.83258 89.9547 9.41965 90.4319 9.15871C90.9002 8.88882 91.626 8.79942 92.3418 8.79942C93.0576 8.79942 93.7834 8.89832 94.2528 9.15871C94.721 9.42859 94.8954 9.83258 94.8954 10.2371H97.6959C97.6959 9.19447 97.3383 8.13448 96.3375 7.45167C95.3368 6.76885 93.803 6.51685 92.2786 6.51685C90.7543 6.51685 89.2211 6.75935 88.2197 7.45167C87.219 8.14342 86.8603 9.19447 86.8603 10.2371C86.8603 11.2798 87.2184 12.3398 88.2197 13.0226C89.2205 13.7054 90.7538 13.9574 92.2786 13.9574C93.0682 13.9574 93.941 14.0563 94.464 14.3167C94.9881 14.5777 95.1714 14.9906 95.1714 15.3951C95.1714 15.7997 94.9881 16.2126 94.464 16.4736C93.941 16.7339 93.1419 16.8328 92.3524 16.8328C91.5629 16.8328 90.7543 16.7339 90.2397 16.4736C89.7256 16.2132 89.5323 15.7997 89.5323 15.3951H86.2998C86.2998 16.4378 86.6943 17.4978 87.8063 18.1806C88.9171 18.8634 90.5979 19.1149 92.2786 19.1149H92.2781Z" fill="#3964FE"/>
<path d="M112.094 12.8147V13.7943H104.757V11.8447H109.624C109.514 11.1351 109.257 10.4701 108.798 9.98457C108.136 9.28387 107.117 9.03243 106.106 9.03243C105.095 9.03243 104.077 9.28387 103.416 9.98457C102.755 10.6853 102.517 11.7548 102.517 12.8153C102.517 13.8758 102.755 14.9537 103.416 15.6455C104.077 16.3372 105.097 16.5982 106.106 16.5982C107.116 16.5982 108.136 16.3467 108.798 15.6455C108.889 15.5466 108.972 15.4387 109.054 15.3309H111.772C111.533 16.1757 111.157 16.9396 110.588 17.5324C109.486 18.6913 107.787 19.1137 106.106 19.1137C104.425 19.1137 102.727 18.7003 101.625 17.5324C100.524 16.3646 100.12 14.5855 100.12 12.8153C100.12 11.0451 100.515 9.25705 101.625 8.09816C102.737 6.93928 104.427 6.51685 106.106 6.51685C107.786 6.51685 109.486 6.93034 110.588 8.09816C111.699 9.26599 112.093 11.0451 112.093 12.8153L112.094 12.8147Z" fill="#3964FE"/>
<path d="M125.924 12.8147V13.7943H118.586V11.8447H123.453C123.344 11.1351 123.086 10.4701 122.627 9.98457C121.966 9.28387 120.947 9.03243 119.936 9.03243C118.926 9.03243 117.907 9.28387 117.246 9.98457C116.585 10.6853 116.346 11.7548 116.346 12.8153C116.346 13.8758 116.585 14.9537 117.246 15.6455C117.907 16.3372 118.927 16.5982 119.936 16.5982C120.946 16.5982 121.966 16.3467 122.627 15.6455C122.719 15.5466 122.801 15.4387 122.884 15.3309H125.602C125.363 16.1757 124.987 16.9396 124.418 17.5324C123.316 18.6913 121.617 19.1137 119.936 19.1137C118.256 19.1137 116.558 18.7003 115.456 17.5324C114.354 16.3646 113.949 14.5855 113.949 12.8153C113.949 11.0451 114.344 9.25705 115.456 8.09816C116.566 6.93928 118.256 6.51685 119.936 6.51685C121.617 6.51685 123.315 6.93034 124.418 8.09816C125.529 9.26599 125.924 11.0451 125.924 12.8153V12.8147Z" fill="#3964FE"/>
<path d="M130.524 3.02271H127.77V19.1153H130.524V3.02271Z" fill="#3964FE"/>
<path d="M135.227 12.4377L139.744 19.1139H136.337L131.819 12.4377L136.337 7.07349H139.744L135.227 12.4377Z" fill="#3964FE"/>
<g clip-path="url(#clip0_16585_64430)">
<path d="M26.5174 3.39471C26.235 3.2567 26.1137 3.52006 25.9487 3.65346C25.8923 3.69659 25.8446 3.75294 25.7969 3.80469C25.3846 4.24516 24.9027 4.53439 24.2737 4.49989C23.3536 4.44814 22.5682 4.73737 21.8735 5.44119C21.7258 4.57349 21.2353 4.0554 20.4889 3.72304C20.0985 3.55054 19.7034 3.37746 19.4297 3.00197C19.2388 2.73459 19.1865 2.43673 19.091 2.14289C19.0301 1.96579 18.9697 1.78466 18.7656 1.75418C18.5442 1.71968 18.4574 1.90541 18.3705 2.06067C18.0232 2.69549 17.8887 3.39471 17.9019 4.10313C17.9324 5.6965 18.6051 6.96556 19.9421 7.86834C20.0939 7.97184 20.133 8.07535 20.0852 8.22658C19.9938 8.53766 19.8857 8.83955 19.7903 9.15063C19.7293 9.34901 19.6385 9.39271 19.4257 9.30588C18.692 8.9994 18.0583 8.54571 17.4982 7.99772C16.5477 7.07827 15.6881 6.06336 14.6162 5.26869C14.3644 5.08296 14.1125 4.91045 13.8521 4.746C12.7584 3.68394 13.9952 2.81164 14.2816 2.70814C14.5812 2.60003 14.3857 2.22857 13.4179 2.23317C12.4502 2.2372 11.5646 2.56151 10.4359 2.99335C10.2708 3.05832 10.0972 3.10547 9.91951 3.14457C8.8954 2.95022 7.83162 2.90709 6.72069 3.03245C4.62877 3.26533 2.95777 4.25436 1.72954 5.94261C0.254043 7.97184 -0.0932679 10.2777 0.33167 12.6824C0.778458 15.2171 2.07225 17.3153 4.06008 18.9558C6.12152 20.6567 8.49577 21.4905 11.2047 21.3306C12.8498 21.2358 14.6812 21.0155 16.7473 19.2669C17.2682 19.5262 17.8151 19.6297 18.7219 19.7074C19.4205 19.7724 20.0933 19.6729 20.6143 19.5648C21.4302 19.3923 21.3739 18.6367 21.0789 18.4981C18.6874 17.3843 19.2124 17.8374 18.7351 17.4706C19.9501 16.033 21.8063 13.4776 22.379 9.99821C22.4353 9.61409 22.5072 9.073 22.4986 8.76192C22.494 8.57216 22.5377 8.49856 22.7545 8.47671C23.3536 8.40771 23.935 8.24383 24.4692 7.94999C26.0188 7.10357 26.6439 5.71318 26.7911 4.04678C26.8129 3.79204 26.7865 3.52869 26.5174 3.39471ZM13.0143 18.3946C10.6964 16.5724 9.5722 15.9726 9.10816 15.9985C8.67402 16.0244 8.75222 16.5212 8.84768 16.8449C8.94773 17.1646 9.07768 17.3849 9.25996 17.6655C9.38589 17.8512 9.47272 18.1272 9.13404 18.3348C8.38766 18.7965 7.08985 18.1796 7.0289 18.1491C5.51833 17.2595 4.25559 16.0853 3.36546 14.4793C2.50581 12.9337 2.0067 11.2753 1.92447 9.50542C1.90262 9.07818 2.02855 8.92695 2.45406 8.84932C3.01413 8.74582 3.59144 8.72397 4.15093 8.80619C6.51656 9.15178 8.53027 10.2092 10.2185 11.8848C11.1822 12.8388 11.9114 13.979 12.6623 15.0929C13.461 16.2757 14.3201 17.4027 15.4144 18.3268C15.8008 18.6505 16.109 18.8966 16.404 19.0783C15.5144 19.1778 14.0297 19.1991 13.0143 18.3958V18.3946ZM14.1252 11.2489C14.1252 11.0591 14.277 10.9079 14.4679 10.9079C14.511 10.9079 14.5501 10.9165 14.5852 10.9292C14.6329 10.9464 14.6766 10.9723 14.7111 11.0114C14.7721 11.0718 14.8066 11.158 14.8066 11.2489C14.8066 11.4386 14.6548 11.5899 14.4639 11.5899C14.273 11.5899 14.1252 11.4386 14.1252 11.2489ZM17.5759 13.0188C17.3545 13.1096 17.1331 13.1873 16.9203 13.1959C16.5903 13.2131 16.2303 13.0791 16.0348 12.9153C15.7312 12.6605 15.5139 12.5179 15.423 12.0734C15.3839 11.8837 15.4057 11.5899 15.4402 11.4214C15.5185 11.0585 15.4316 10.8257 15.1757 10.614C14.9676 10.4415 14.7025 10.3938 14.4115 10.3938C14.3029 10.3938 14.2034 10.3461 14.1292 10.3076C14.0079 10.2472 13.9078 10.096 14.0033 9.91023C14.0338 9.84985 14.1815 9.70322 14.216 9.67734C14.6111 9.45251 15.0665 9.52612 15.488 9.6946C15.8784 9.85445 16.174 10.1477 16.5989 10.5623C17.033 11.0631 17.1112 11.2011 17.3585 11.5772C17.554 11.871 17.7317 12.1729 17.8536 12.5185C17.9272 12.7341 17.8317 12.9107 17.5759 13.0188Z" fill="#3964FE"/>
</g>
<defs>
<clipPath id="clip0_16585_64430">
<rect width="26.634" height="19.6" fill="white" transform="translate(0.163086 1.75)"/>
</clipPath>
</defs>
</svg>
