<svg width="100" height="100" viewBox="0 0 100 100" fill="none" xmlns="http://www.w3.org/2000/svg">
<g clip-path="url(#clip0_16585_65580)">
<path d="M35.8245 17.1938L23.3914 24.1295L22.6458 34.541L21.3817 41.5826L25.0088 47.6538L50.5223 81.3628L55.2916 89.34L61.7054 82.3504L70.0932 63.0259L66.1462 46.086L50.0329 42.3032L43.6148 39.7555L35.9671 28.406L35.8245 17.1938Z" fill="white"/>
<path d="M66.4098 91.7298C65.4114 91.3765 64.8075 91.3225 64.143 91.2977C63.2721 91.2652 62.3569 91.369 62.1754 90.8006C62.1322 90.6645 62.2197 90.5035 62.3256 90.3792C62.4045 90.2874 62.506 90.2215 62.5957 90.1394C82.4615 72.0931 91.6002 48.4434 78.521 21.3125C76.9997 18.1574 76.2714 14.8501 76.8905 11.4023C78.0056 5.19702 84.4907 0.970167 80.5566 0.195459C75.8727 -0.727276 71.3995 1.68113 67.781 5.65191C66.2132 7.37204 63.7551 10.8101 58.9102 9.63782C54.6909 8.61568 46.1669 8.58219 40.3204 12.1024C33.938 15.9457 36.2816 17.8084 34.8737 20.192C33.5479 22.4351 32.112 22.8349 30.3637 24.7668C26.7592 28.7505 30.125 30.8866 25.8171 37.5532C20.46 45.8416 31.9618 46.6941 37.9261 44.6509C39.0757 44.2576 40.2653 43.9854 41.4744 43.859C48.0675 43.1718 54.9664 45.2928 58.478 50.9134C59.1803 52.0382 60.6379 52.4207 61.7897 51.7659C62.0836 51.5985 62.3591 51.4375 62.6076 51.3013C62.7999 51.1965 62.9998 51.4299 62.8658 51.6028C58.935 56.6876 50.1291 59.2559 47.296 64.7804C47.0875 65.1877 46.9762 65.6394 46.9805 66.0964C47.0238 70.8084 54.8324 70.2822 57.6017 69.3476C61.7486 68.0683 63.5325 66.8365 67.0171 64.0359C67.8188 63.392 68.6335 63.4762 68.2099 64.0532C67.1802 65.4568 65.983 67.0667 64.5773 69.085C60.8583 74.4259 61.4666 77.5852 58.827 83.5041C55.3424 91.316 52.4262 81.3248 48.5926 76.0477C48.3841 75.7603 44.8206 73.5788 44.8206 73.5788C45.6278 76.8915 52.7168 86.3285 53.3154 87.9838C53.4948 88.4798 53.417 88.9498 52.8897 88.966C50.8865 89.0286 49.6158 87.1151 45.6839 88.1243C45.6839 88.1243 43.4247 88.9001 42.074 90.1415C40.4058 91.6748 45.3998 90.9195 46.2566 92.1426C47.7877 94.3263 51.5078 95.4856 54.6293 94.4624C55.0626 94.3209 55.5326 94.4656 55.82 94.8179C56.7179 95.9189 57.8308 96.4537 58.8216 96.7033C59.8967 96.9745 61.0258 96.941 62.0954 96.6493C63.6935 96.2139 65.2915 95.7201 66.8172 95.9157C68.7447 96.1631 69.3228 97.0664 69.5897 96.3695C70.0867 94.4473 68.5978 92.5791 66.4077 91.7298H66.4098ZM27.0758 34.5506C27.0823 34.5344 27.0791 34.5398 27.0758 34.5506ZM48.5235 68.5794C48.5235 68.5794 48.5181 68.574 48.5148 68.5697C48.5181 68.574 48.5375 68.5869 48.5235 68.5794ZM60.2727 60.1624C60.2824 60.144 60.2921 60.1257 60.3051 60.1062C60.2997 60.1311 60.2878 60.1483 60.2727 60.1624ZM63.1057 66.5578H63.1359C63.1273 66.5621 63.1165 66.5599 63.1057 66.5578ZM66.359 61.1737L66.4811 61.2386C66.4746 61.2386 66.3623 61.1791 66.359 61.1737ZM67.781 5.65299C67.8047 5.62382 67.8317 5.60005 67.8566 5.57195C67.8317 5.59897 67.8058 5.62598 67.781 5.65299ZM69.0862 4.53793C69.1132 4.51308 69.1197 4.48823 69.151 4.49795C69.1305 4.50984 69.1089 4.5228 69.0862 4.53793ZM69.4957 56.8399C69.5065 56.8723 69.513 56.9026 69.5205 56.9339C69.5108 56.9058 69.5022 56.8756 69.4957 56.8399Z" fill="#4269F5"/>
<path d="M25.8181 31.2238C26.0094 29.8861 26.2158 28.5582 26.3519 27.696C26.4124 27.3113 26.0083 27.0239 25.6647 27.2065C25.5318 27.2767 25.4011 27.3427 25.2865 27.3945C25.0413 27.5047 24.7431 27.4583 24.5713 27.2508C23.0391 25.4064 39.2237 18.7452 34.7613 16.2796C34.3043 16.0267 29.7878 14.043 24.1153 17.024C15.0587 21.7598 14.5595 31.3696 17.2564 38.8887C19.628 46.182 29.6355 53.1079 37.3145 58.3645C35.7348 51.5001 18.0592 47.1415 23.9781 36.6878C24.9332 35.0011 25.5426 33.1427 25.8181 31.2238ZM29.7878 21.776C29.6863 21.8462 29.5923 21.9262 29.4799 21.9802C29.5825 21.9132 29.6863 21.8451 29.7878 21.776ZM26.3065 24.6717C26.2709 24.7041 26.2266 24.7354 26.1812 24.7679L26.3065 24.6717ZM18.0311 25.8192C18.03 25.8084 18.0289 25.7976 18.0311 25.7878V25.8192ZM23.1461 44.7277C23.1817 44.7752 23.2044 44.8076 23.2228 44.853C23.1969 44.8119 23.172 44.7698 23.1461 44.7277ZM23.2703 46.6779C23.3103 46.7017 23.3503 46.7255 23.3903 46.7482C23.3525 46.7276 23.3114 46.7039 23.2703 46.6779Z" fill="url(#paint0_linear_16585_65580)"/>
<path d="M63.7648 66.2014H63.7475C63.7475 66.2014 63.7453 66.2014 63.7453 66.2025C63.7529 66.2036 63.7605 66.2047 63.7648 66.2014Z" fill="url(#paint1_linear_16585_65580)"/>
<path d="M63.7648 66.2013C63.7702 66.1981 63.7777 66.1905 63.7875 66.1797L63.7648 66.2013Z" fill="url(#paint2_linear_16585_65580)"/>
<path d="M81.0861 95.4631C81.6576 95.0223 81.6133 94.16 81.0018 93.7765C78.4853 92.1946 72.9111 92.28 70.3288 91.6533C68.936 91.4372 70.3849 90.5988 69.5454 90.2714C68.0003 89.7949 66.8647 90.0412 65.6038 89.582C65.2191 89.4426 64.7859 89.555 64.5265 89.8716C64.5049 89.8986 64.4833 89.9245 64.4606 89.9505C64.3072 90.1288 64.4239 90.4054 64.6584 90.4183C69.728 90.6766 70.6302 94.2919 70.6842 95.7818C70.7091 96.4604 70.4616 97.0784 70.0478 97.4382C69.6113 97.8196 68.9425 97.6619 68.1753 97.2092C64.6886 95.153 61.0074 100.592 56.0469 96.576C55.3003 95.9709 54.3203 95.7354 53.3813 95.9418C51.0734 96.4496 47.6893 95.2092 45.4138 93.1422C44.8768 92.6549 44.2221 92.3146 43.51 92.1774C42.637 92.0088 42.0146 91.9796 41.0346 91.5982C40.3053 91.314 40.2448 90.615 40.6154 90.0899C42.6554 87.1963 47.5057 86.6204 49.2323 87.0591C50.9416 87.5151 51.3543 87.6663 51.2528 87.3379C51.188 87.1282 51.7379 87.2568 51.7984 87.0461C51.9205 86.6215 50.3603 86.037 49.336 85.8241C43.9109 84.615 25.8992 88.8624 35.2497 92.0455C37.9217 93.0353 37.3988 93.5377 35.2 94.2767C33.535 94.4572 31.5653 95.703 33.8894 96.8526C45.5932 99.5419 71.4082 102.928 81.0861 95.4653V95.4631ZM36.5279 92.5242C36.6824 92.6009 36.8056 92.683 36.8996 92.7727C36.7613 92.6744 36.6014 92.5674 36.5279 92.5242ZM62.9317 99.3561C62.8745 99.3366 62.9739 99.3496 63.0041 99.3485C62.9782 99.3572 62.9544 99.3615 62.9317 99.3561ZM45.0962 98.7932C44.9557 98.7964 44.8098 98.7856 44.6813 98.7402C44.8196 98.7597 44.9579 98.777 45.0962 98.7932Z" fill="#B8D0FF"/>
<path d="M28.1498 91.9277C26.0159 91.838 25.2638 91.7688 25.1947 91.342C25.1515 91.0741 25.3989 90.8428 26.0774 90.5176L26.0904 90.5122C26.4891 90.3664 27.1061 90.2886 27.7587 90.2064C28.7538 90.0811 29.992 89.9255 30.247 89.4901C30.2924 89.4134 30.3 89.3302 30.2741 89.2275C30.099 88.5544 26.0256 88.2983 23.1158 89.2102C21.0381 89.8618 20.8965 90.7099 20.997 91.1573C21.01 91.2135 21.0478 91.3842 20.9387 91.4901C20.823 91.6024 20.6783 91.53 20.5248 91.4544C20.4578 91.422 20.2817 91.3345 20.2407 91.3593C20.2407 91.3593 20.2072 91.3961 20.2093 91.5657C20.3303 92.0584 21.628 92.7931 24.2763 93.3409C26.6447 93.8304 29.1633 93.9676 30.6944 93.6921C31.4323 93.5592 32.3 93.2707 32.2675 92.6494C32.0817 92.0908 29.7176 91.9925 28.1487 91.9266L28.1498 91.9277Z" fill="#B8D0FF"/>
<path d="M90.3858 96.0843C90.3393 94.6818 87.8704 94.2734 85.9234 94.2875C85.3691 94.2918 85.0212 94.7034 85.2686 95.0632C85.9979 96.1254 86.8374 96.0087 83.0255 96.6613C82.7424 96.7099 82.5166 96.872 82.4723 97.0794C82.1157 98.7261 90.5608 97.8466 90.3858 96.0854V96.0843Z" fill="#B8D0FF"/>
<path d="M23.9781 36.6858C24.9332 34.9992 25.5426 33.1407 25.8181 31.2218C26.0094 29.8842 26.2158 28.5562 26.3519 27.694C26.4124 27.3094 26.0083 27.022 25.6647 27.2046C25.5318 27.2748 25.4011 27.3407 25.2865 27.3926C25.0413 27.5028 24.7431 27.4563 24.5713 27.2489C23.0391 25.4045 39.2237 18.7433 34.7613 16.2776C34.3043 16.0248 29.7878 14.041 24.1153 17.0221C15.0587 21.7578 14.5595 31.3677 17.2564 38.8868C19.2952 45.1547 26.9743 51.1514 33.9661 56.0514C34.784 56.2556 35.5868 56.3517 36.3615 56.3204C32.354 50.5409 18.6653 46.0677 23.977 36.6858H23.9781ZM29.7878 21.7751C29.6863 21.8453 29.5923 21.9253 29.4799 21.9793C29.5825 21.9123 29.6863 21.8443 29.7878 21.7751ZM26.3065 24.6708C26.2709 24.7022 26.2266 24.7346 26.1812 24.767L26.3065 24.6708ZM18.0311 25.8183C18.03 25.8075 18.0289 25.7967 18.0311 25.787V25.8183ZM23.1461 44.7268C23.1817 44.7743 23.2044 44.8067 23.2228 44.8521C23.1969 44.8111 23.172 44.7689 23.1461 44.7268ZM23.6247 44.3097C23.6604 44.3573 23.6831 44.3897 23.7015 44.4351C23.6755 44.394 23.6507 44.3519 23.6247 44.3097Z" fill="#4269F5"/>
<path d="M8.70543 45.8225C9.30618 46.2266 9.85074 46.6999 10.3953 47.1645C10.5228 47.2736 10.6092 47.3644 10.7432 47.4811C10.7756 47.5102 10.8361 47.4897 10.834 47.521C10.6395 47.776 10.2516 48.9365 9.96959 49.3687C9.58386 49.9608 9.22946 48.1391 9.1279 47.7198C8.97015 47.0683 8.80267 46.4881 8.70435 45.8225H8.70543Z" fill="#B8D0FF"/>
<path d="M24.3282 49.9725C26.9408 50.0006 29.7014 50.0946 32.2503 50.9709C34.3453 51.4982 41.2378 49.9725 43.3663 50.8855C45.013 51.1967 44.7818 53.3869 45.6753 54.4274C46.315 55.1902 44.8163 55.5035 44.9103 56.2555C47.6169 57.0454 46.0924 59.8633 46.5991 61.8362C46.7839 62.5569 46.6045 63.3241 46.0816 63.8535C45.3317 64.6142 44.8347 65.5909 45.4614 66.6347C46.1378 68.7773 46.5094 69.9853 48.5483 71.0593C48.8249 71.2797 48.7007 72.0987 48.7849 72.318C50.2706 76.1667 51.1339 80.0694 51.121 79.6416C51.1696 81.1867 47.7952 80.2564 47.3792 79.2839C47.2496 78.8647 46.1745 78.4347 45.8547 78.5805C45.1243 77.9495 44.8088 77.5 44.5862 76.6746C40.1854 71.8415 46.7169 80.9554 40.7072 78.8906C36.9979 79.6783 30.9364 78.4368 27.5999 77.1964C26.8749 76.2143 26.2698 74.6238 25.6712 73.4493C24.8025 73.0938 24.8338 71.9399 24.7722 71.244C24.4459 69.9086 24.1294 67.0453 24.4459 66.827C24.8565 66.545 25.0942 66.8421 25.6874 67.3165C27.9575 69.1306 29.0574 70.492 32.1466 72.4012C33.1817 73.0409 33.1006 73.6449 33.7727 72.4023C33.7176 72.0814 34.2438 71.9658 34.6522 71.9183C37.1913 70.9555 36.073 70.2424 34.3443 69.2786C32.0137 68.25 29.8051 66.1117 28.2287 64.8346C26.2547 64.1312 28.9051 62.6174 30.3313 61.8849C30.9375 60.3473 32.3238 60.5137 30.9559 59.1156C30.5993 59.014 30.8057 58.1507 30.1639 57.8838C29.6766 57.9379 29.7468 57.4408 29.3719 57.3555C27.8516 56.4479 27.6561 58.1529 26.6004 58.4803C26.1034 58.7082 25.1828 60.6834 24.9365 60.9632C24.2071 61.7887 22.6318 61.2733 22.5043 60.4684C23.9932 60.1258 21.789 55.738 21.8841 54.705C21.7101 53.3642 22.2353 51.5954 21.5881 50.3842C20.8598 49.5922 22.2536 50.3042 22.5043 50.1929C22.7442 49.9347 23.7242 50.0968 24.326 49.9714L24.3282 49.9725Z" fill="#B8D0FF"/>
<path d="M5.39699 54.9385C6.14577 55.1189 7.04257 56.0103 7.76217 56.2891C8.56497 56.5992 9.41315 56.9352 10.1954 57.2821C10.5336 57.4322 11.5482 57.8525 11.7632 58.047C11.9555 58.221 11.9653 58.4436 11.6444 58.476C11.1052 58.5311 9.79349 58.2426 9.19165 58.0935C7.76001 57.7391 5.81298 57.3436 5.32568 57.6386C5.18846 57.7218 4.80056 58.2739 4.64281 58.2793C4.6266 58.2826 4.68711 57.7931 4.81137 57.1394C4.85891 56.8909 5.04367 56.5581 5.15388 56.328C5.45858 55.9304 5.36674 55.0951 5.39915 54.9406L5.39699 54.9385Z" fill="#B8D0FF"/>
<path d="M8.70543 45.8224C9.36993 46.9526 9.35912 51.5274 10.6395 47.7749C11.0274 47.455 11.4715 45.7144 11.7308 45.3178C16.6124 46.3421 17.8193 48.5593 22.5151 50.0957C22.9171 50.5323 21.681 50.1606 21.5038 50.1033C22.0311 50.6878 22.0397 51.5339 22.0419 52.2653C21.0521 53.7986 24.433 61.2453 22.6232 60.9784C19.7329 59.2302 17.3688 57.0843 14.8793 54.9395C13.0576 53.0671 14.9139 54.4544 13.4585 55.1945C12.4255 55.9293 12.4806 55.6321 13.3115 56.1259C16.0095 56.9114 14.6265 59.0692 16.8858 60.2566C17.3493 60.6229 21.5967 63.3317 21.3817 63.9184C20.3509 65.3198 19.7393 66.625 18.164 67.4959C15.009 71.1868 14.956 67.8935 17.5989 70.3872C19.48 71.7519 19.7026 71.9237 20.8263 70.0134C21.9522 68.881 23.5329 68.4489 24.2525 66.9589C25.9694 66.2684 25.3633 69.3122 25.83 70.2727C26.4513 72.0663 23.4746 77.1187 26.1315 77.1511C24.715 77.6978 20.3163 77.0884 18.3131 76.2413C12.4288 72.4153 13.371 74.1635 7.44126 71.7044C6.82971 71.0172 8.37372 69.9432 8.50986 69.1814C8.27431 67.1447 7.13332 66.3841 7.05769 64.2922C4.29057 58.315 2.13284 55.9401 10.9636 58.3226C13.6778 58.4436 6.50124 55.9239 5.72545 55.6818C4.99504 53.1654 2.02371 51.9833 1.84543 49.0217C2.91943 46.206 -1.62293 40.6318 0.646088 41.3481C3.98155 42.2352 7.10415 42.7139 8.70759 45.8203L8.70543 45.8224Z" fill="#DCE4F9"/>
<path d="M43.1016 76.1754C43.1178 76.1905 43.1319 76.184 43.1459 76.1548C43.2086 76.1548 43.268 76.1743 43.3253 76.2132C43.7791 76.5676 44.3614 76.8064 44.8131 77.1154C44.8174 77.1143 44.8185 77.1111 44.8217 77.1089C44.7072 76.9717 44.6229 76.828 44.5819 76.6756C42.6932 74.6011 42.8185 75.097 43.1016 76.1754Z" fill="#8AA8E2"/>
<path d="M25.6604 73.4515C25.5913 73.4224 25.5275 73.3878 25.4702 73.3489C25.011 75.1576 24.5443 76.9847 25.9489 77.1457L25.9954 77.1003C26.0786 77.1414 26.232 77.1468 26.3163 77.1079L26.4751 77.1662C26.6047 77.1662 27.5696 77.2451 27.602 77.2213C27.6107 77.2149 27.561 77.1641 27.5415 77.1219C27.5307 77.1101 27.508 77.0776 27.4789 77.0312C26.8111 76.0469 26.2428 74.5806 25.6809 73.4742C25.6744 73.4667 25.668 73.4591 25.6615 73.4526L25.6604 73.4515Z" fill="#8AA8E2"/>
<path d="M11.2478 55.2691C10.2884 55.952 11.1463 56.5851 11.9188 57.0433C14.4244 57.7726 15.2748 60.0621 17.3731 61.1653C17.8031 61.5057 20.5973 63.457 20.3974 64.0016C19.4401 65.3036 17.9609 66.3106 16.4968 67.1199C13.5665 70.5493 14.9798 68.7838 17.4347 71.1004C19.1818 72.3678 19.9879 72.0037 21.0316 70.2284C22.0775 69.1771 23.5459 68.7752 24.2136 67.3911C24.2579 67.3727 24.3012 67.3587 24.3422 67.3457C24.3574 67.31 24.3746 67.283 24.3941 67.269C24.7755 67.0064 24.9959 67.283 25.548 67.7239C27.6572 69.4094 28.6782 70.6736 31.548 72.4467C32.5096 73.0409 34.1022 74.2262 34.7268 73.0723C34.676 72.7741 34.931 72.0707 35.3102 72.0264C37.6689 71.1317 36.4242 69.8859 34.8186 68.9902C32.6533 68.035 30.998 66.0243 29.534 64.8379C27.7004 64.1853 28.5378 63.3587 29.8624 62.6769C30.4254 61.2485 34.0309 59.6537 32.7614 58.3561C32.4307 58.261 31.427 57.2496 30.8305 57.0011C30.3778 57.0508 29.8992 56.0071 29.5512 55.9271C28.1391 55.0843 27.1277 57.5122 26.1477 57.8169C25.6863 58.0287 25.0316 59.5359 24.8014 59.7953C24.124 60.5613 22.6599 60.0827 22.5421 59.3361C19.8571 57.7121 17.4433 55.617 15.1322 53.6246C13.439 51.885 12.5984 54.5787 11.2457 55.2659L11.2478 55.2691Z" fill="#8AA8E2"/>
<path d="M51.5704 39.9361C51.6509 39.2444 51.0296 38.6037 50.1826 38.5051C49.3355 38.4065 48.5836 38.8874 48.5031 39.5791C48.4226 40.2708 49.0439 40.9115 49.891 41.0101C50.738 41.1087 51.4899 40.6279 51.5704 39.9361Z" fill="white"/>
<path d="M52.5461 37.454C53.7508 38.4307 54.5169 39.5296 55.9583 40.3885C58.8053 42.086 64.1797 42.3269 65.7583 38.7386C67.1759 35.5166 64.439 33.1785 62.1051 31.7987C61.4428 31.4076 60.801 31.2077 60.0933 30.9084C56.9004 29.5578 53.2754 30.3584 53.2754 30.3584C47.014 31.8279 46.0232 34.0061 45.7758 35.0585C45.5478 36.0277 46.3009 36.5788 47.1329 36.851C48.9146 37.4334 50.9092 36.1293 52.5439 37.455L52.5461 37.454Z" fill="white"/>
</g>
<defs>
<linearGradient id="paint0_linear_16585_65580" x1="16.1445" y1="25.8354" x2="46.1075" y2="43.135" gradientUnits="userSpaceOnUse">
<stop offset="0.05" stop-color="#3976FF"/>
<stop offset="0.36" stop-color="#315EDF"/>
<stop offset="0.83" stop-color="#2537AA"/>
</linearGradient>
<linearGradient id="paint1_linear_16585_65580" x1="63.7475" y1="66.1982" x2="63.7615" y2="66.2057" gradientUnits="userSpaceOnUse">
<stop offset="0.14" stop-color="#4D6BFE"/>
<stop offset="0.25" stop-color="#435EEB"/>
<stop offset="0.48" stop-color="#2B3EBC"/>
<stop offset="0.8" stop-color="#040A70"/>
<stop offset="0.83" stop-color="#000467"/>
</linearGradient>
<linearGradient id="paint2_linear_16585_65580" x1="63.7723" y1="66.1883" x2="63.7799" y2="66.1927" gradientUnits="userSpaceOnUse">
<stop offset="0.14" stop-color="#4D6BFE"/>
<stop offset="0.25" stop-color="#435EEB"/>
<stop offset="0.48" stop-color="#2B3EBC"/>
<stop offset="0.8" stop-color="#040A70"/>
<stop offset="0.83" stop-color="#000467"/>
</linearGradient>
<clipPath id="clip0_16585_65580">
<rect width="90.388" height="100" fill="white"/>
</clipPath>
</defs>
</svg>
